<?xml version="1.0" encoding="UTF-8"?>
<svg width="351px" height="281px" viewBox="0 0 351 281" version="1.1" xmlns="http://www.w3.org/2000/svg" xmlns:xlink="http://www.w3.org/1999/xlink">
    <!-- Generator: Sketch 43.1 (39012) - http://www.bohemiancoding.com/sketch -->
    <title>Group 47 Copy</title>
    <desc>Created with Sketch.</desc>
    <defs>
        <polygon id="path-1" points="0 335.14965 384.421621 335.14965 384.421621 0.661525749 0 0.661525749"></polygon>
        <polygon id="path-3" points="12.8078425 13.8172807 12.8078425 0.367962731 0.678584475 0.367962731 0.678584475 13.8172807 12.8078425 13.8172807"></polygon>
    </defs>
    <g id="Page-1" stroke="none" stroke-width="1" fill="none" fill-rule="evenodd">
        <g id="Jobs" transform="translate(-103.000000, -823.000000)">
            <g id="Group-47-Copy" transform="translate(85.000000, 805.000000)">
                <g id="Group-12-Copy-2">
                    <g id="Page-1">
                        <g id="Group-14">
                            <mask id="mask-2" fill="white">
                                <use xlink:href="#path-1"></use>
                            </mask>
                            <g id="Clip-6"></g>
                            <path d="M363.779809,255.150043 L23.986369,255.150043 C22.2370779,255.150043 20.8058397,253.879907 20.8058397,252.327519 L20.8058397,23.0045308 C20.8058397,21.4521428 22.2370779,20.1820072 23.986369,20.1820072 L363.779809,20.1820072 C365.5291,20.1820072 366.960338,21.4521428 366.960338,23.0045308 L366.960338,252.327519 C366.960338,253.879907 365.5291,255.150043 363.779809,255.150043 Z" id="Fill-1" fill="#3D3D3D" mask="url(#mask-2)"></path>
                            <path d="M363.779809,255.150043 L23.986369,255.150043 C22.2370779,255.150043 20.8058397,253.879907 20.8058397,252.327519 L20.8058397,23.0045308 C20.8058397,21.4521428 22.2370779,20.1820072 23.986369,20.1820072 L363.779809,20.1820072 C365.5291,20.1820072 366.960338,21.4521428 366.960338,23.0045308 L366.960338,252.327519 C366.960338,253.879907 365.5291,255.150043 363.779809,255.150043 Z" id="Stroke-3" stroke="#000000" stroke-width="4" mask="url(#mask-2)"></path>
                            <polygon id="Fill-8" fill="#F2F2F2" mask="url(#mask-2)" points="149.832683 282.64377 234.589817 282.64377 234.589817 255.843203 149.832683 255.843203"></polygon>
                            <polygon id="Stroke-9" stroke="#000000" stroke-width="2" mask="url(#mask-2)" points="149.832683 282.64377 234.589817 282.64377 234.589817 255.843203 149.832683 255.843203"></polygon>
                            <polygon id="Fill-5" fill="#FFFFFF" mask="url(#mask-2)" points="40.9653166 217.567965 348.069544 217.567965 348.069544 40.474902 40.9653166 40.474902"></polygon>
                            <polygon id="Stroke-7" stroke="#000000" stroke-width="2" mask="url(#mask-2)" points="39.7002398 217.567965 348.069544 217.567965 348.069544 40.474902 39.7002398 40.474902"></polygon>
                            <polygon id="Fill-10" fill="#3D3D3D" mask="url(#mask-2)" points="91.1571005 296.426141 293.2654 296.426141 293.2654 282.64377 91.1571005 282.64377"></polygon>
                            <polygon id="Stroke-11" stroke="#000000" stroke-width="4" mask="url(#mask-2)" points="91.1571005 296.426141 293.2654 296.426141 293.2654 282.64377 91.1571005 282.64377"></polygon>
                            <path d="M204.321082,235.852748 C204.321082,242.528543 198.899438,247.94007 192.211162,247.94007 C185.522886,247.94007 180.101242,242.528543 180.101242,235.852748 C180.101242,229.176953 185.522886,223.765427 192.211162,223.765427 C198.899438,223.765427 204.321082,229.176953 204.321082,235.852748" id="Fill-12" fill="#FFFFFF" mask="url(#mask-2)"></path>
                            <path d="M204.321082,235.852748 C204.321082,242.528543 198.899438,247.94007 192.211162,247.94007 C185.522886,247.94007 180.101242,242.528543 180.101242,235.852748 C180.101242,229.176953 185.522886,223.765427 192.211162,223.765427 C198.899438,223.765427 204.321082,229.176953 204.321082,235.852748 Z" id="Stroke-13" stroke="#000000" stroke-width="2" mask="url(#mask-2)"></path>
                        </g>
                        <g id="Group-17" transform="translate(185.468037, 228.528325)">
                            <mask id="mask-4" fill="white">
                                <use xlink:href="#path-3"></use>
                            </mask>
                            <g id="Clip-16"></g>
                            <path d="M6.74233447,0.367962731 C6.24746005,0.367962731 5.84839612,0.768914013 5.84839612,1.26023287 L5.84839612,5.36976418 C5.84839612,5.8637151 6.25009703,6.26203432 6.74233447,6.26203432 C7.23457192,6.26203432 7.63627283,5.86108304 7.63627283,5.36976418 L7.63627283,1.26023287 C7.63627283,0.768914013 7.2372089,0.367962731 6.74233447,0.367962731 M0.705393836,8.34312063 C0.506740868,6.2155345 1.41738014,4.28798534 2.92749429,3.06407497 C3.51642123,2.58591643 4.39629566,2.99476391 4.39629566,3.75016666 C4.39629566,4.02741087 4.26444635,4.28272121 4.04997146,4.45556016 C2.97935502,5.32589642 2.33593037,6.69895716 2.49239155,8.21414943 C2.69631849,10.1881984 4.28026826,11.7858621 6.255371,12.0052008 C8.83258562,12.2938507 11.0221632,10.278566 11.0221632,7.76406626 C11.0221632,6.42960915 10.4033505,5.23552885 9.43733447,4.4529281 C9.22285959,4.28008914 9.09364726,4.02477881 9.09364726,3.75016666 C9.09364726,3.00353746 9.96033676,2.5806523 10.5431107,3.04740522 C11.9240126,4.15901414 12.81004,5.85845097 12.81004,7.76406626 C12.81004,11.2480434 9.84518836,14.0564571 6.29932078,13.8011467 C3.367871,13.5949683 0.977003425,11.2638358 0.705393836,8.34312063" id="Fill-15" fill="#000000" mask="url(#mask-4)"></path>
                        </g>
                        <path d="M229.128795,236.068578 C229.128795,238.976133 226.767813,241.332708 223.854822,241.332708 C220.941831,241.332708 218.580849,238.976133 218.580849,236.068578 C218.580849,233.161023 220.941831,230.804447 223.854822,230.804447 C226.767813,230.804447 229.128795,233.161023 229.128795,236.068578 Z" id="Fill-18" fill="#FFFFFF"></path>
                        <path d="M229.128795,236.068578 C229.128795,238.976133 226.767813,241.332708 223.854822,241.332708 C220.941831,241.332708 218.580849,238.976133 218.580849,236.068578 C218.580849,233.161023 220.941831,230.804447 223.854822,230.804447 C226.767813,230.804447 229.128795,233.161023 229.128795,236.068578 Z" id="Stroke-20" stroke="#000000" stroke-width="2"></path>
                        <path d="M165.841123,236.068578 C165.841123,238.976133 163.480142,241.332708 160.567151,241.332708 C157.65416,241.332708 155.293178,238.976133 155.293178,236.068578 C155.293178,233.161023 157.65416,230.804447 160.567151,230.804447 C163.480142,230.804447 165.841123,233.161023 165.841123,236.068578" id="Fill-22" fill="#FFFFFF"></path>
                        <path d="M165.841123,236.068578 C165.841123,238.976133 163.480142,241.332708 160.567151,241.332708 C157.65416,241.332708 155.293178,238.976133 155.293178,236.068578 C155.293178,233.161023 157.65416,230.804447 160.567151,230.804447 C163.480142,230.804447 165.841123,233.161023 165.841123,236.068578 Z" id="Stroke-24" stroke="#000000" stroke-width="2"></path>
                        <path d="M260.77263,236.068578 C260.77263,238.976133 258.411648,241.332708 255.498658,241.332708 C252.585667,241.332708 250.224685,238.976133 250.224685,236.068578 C250.224685,233.161023 252.585667,230.804447 255.498658,230.804447 C258.411648,230.804447 260.77263,233.161023 260.77263,236.068578" id="Fill-26" fill="#FFFFFF"></path>
                        <path d="M260.77263,236.068578 C260.77263,238.976133 258.411648,241.332708 255.498658,241.332708 C252.585667,241.332708 250.224685,238.976133 250.224685,236.068578 C250.224685,233.161023 252.585667,230.804447 255.498658,230.804447 C258.411648,230.804447 260.77263,233.161023 260.77263,236.068578 Z" id="Stroke-28" stroke="#000000" stroke-width="2"></path>
                        <path d="M134.197288,236.068578 C134.197288,238.976133 131.836306,241.332708 128.923315,241.332708 C126.010324,241.332708 123.649342,238.976133 123.649342,236.068578 C123.649342,233.161023 126.010324,230.804447 128.923315,230.804447 C131.836306,230.804447 134.197288,233.161023 134.197288,236.068578" id="Fill-30" fill="#FFFFFF"></path>
                        <path d="M134.197288,236.068578 C134.197288,238.976133 131.836306,241.332708 128.923315,241.332708 C126.010324,241.332708 123.649342,238.976133 123.649342,236.068578 C123.649342,233.161023 126.010324,230.804447 128.923315,230.804447 C131.836306,230.804447 134.197288,233.161023 134.197288,236.068578 Z" id="Stroke-32" stroke="#000000" stroke-width="2"></path>
                    </g>
                </g>
            </g>
        </g>
    </g>
</svg>