<?xml version="1.0" encoding="UTF-8"?>
<svg width="222px" height="336px" viewBox="0 0 222 336" version="1.1" xmlns="http://www.w3.org/2000/svg" xmlns:xlink="http://www.w3.org/1999/xlink">
    <!-- Generator: Sketch 43.1 (39012) - http://www.bohemiancoding.com/sketch -->
    <title>Page 1</title>
    <desc>Created with Sketch.</desc>
    <defs>
        <polygon id="path-1" points="0 334.043177 219.94574 334.043177 219.94574 0.0685784733 0 0.0685784733"></polygon>
        <polygon id="path-3" points="14.2965085 15.9851509 14.2965085 0.0316795455 0.0291210274 0.0316795455 0.0291210274 16.0248006 14.2965085 16.0248006 14.2965085 15.9851509 14.2987711 15.9851509 14.2987711 0.0317580817 0.0294777746 0.0317580817 0.0294777746 15.9851509 14.2965085 15.9851509"></polygon>
    </defs>
    <g id="Page-1" stroke="none" stroke-width="1" fill="none" fill-rule="evenodd">
        <g id="Jobs" transform="translate(-532.000000, -737.000000)">
            <g id="Group-46-Copy" transform="translate(533.000000, 738.000000)">
                <g id="Group-39">
                    <g id="Page-1">
                        <g id="Group-10" transform="translate(0.000000, 0.195555)">
                            <path d="M209.802998,333.257815 L10.1422736,333.257815 C4.99300048,333.257815 0.779958838,329.016858 0.779958838,323.833465 L0.779958838,10.2782904 C0.779958838,5.09489819 4.99300048,0.853940929 10.1422736,0.853940929 L209.802998,0.853940929 C214.952271,0.853940929 219.165313,5.09489819 219.165313,10.2782904 L219.165313,323.833465 C219.165313,329.016858 214.952271,333.257815 209.802998,333.257815 Z" id="Fill-1" fill="#E1F587"></path>
                            <path d="M209.802998,333.257815 L10.1422736,333.257815 C4.99300048,333.257815 0.779958838,329.016858 0.779958838,323.833465 L0.779958838,10.2782904 C0.779958838,5.09489819 4.99300048,0.853940929 10.1422736,0.853940929 L209.802998,0.853940929 C214.952271,0.853940929 219.165313,5.09489819 219.165313,10.2782904 L219.165313,323.833465 C219.165313,329.016858 214.952271,333.257815 209.802998,333.257815 Z" id="Stroke-3" stroke="#000000" stroke-width="3.08"></path>
                            <mask id="mask-2" fill="white">
                                <use xlink:href="#path-1"></use>
                            </mask>
                            <g id="Clip-6"></g>
                            <polygon id="Fill-5" fill="#FFFFFF" mask="url(#mask-2)" points="24.9661727 275.904365 194.979567 275.904365 194.979567 24.4705753 24.9661727 24.4705753"></polygon>
                            <polygon id="Stroke-7" stroke="#000000" stroke-width="1.54" mask="url(#mask-2)" points="24.9661727 275.904365 194.979567 275.904365 194.979567 24.4705753 24.9661727 24.4705753"></polygon>
                            <path d="M124.216696,303.737689 C124.216696,311.656499 117.839399,318.076052 109.972714,318.076052 C102.106029,318.076052 95.7287321,311.656499 95.7287321,303.737689 C95.7287321,295.81888 102.106029,289.399327 109.972714,289.399327 C117.839399,289.399327 124.216696,295.81888 124.216696,303.737689" id="Fill-8" fill="#FFFFFF" mask="url(#mask-2)"></path>
                            <path d="M124.216696,303.737689 C124.216696,311.656499 117.839399,318.076052 109.972714,318.076052 C102.106029,318.076052 95.7287321,311.656499 95.7287321,303.737689 C95.7287321,295.81888 102.106029,289.399327 109.972714,289.399327 C117.839399,289.399327 124.216696,295.81888 124.216696,303.737689 Z" id="Stroke-9" stroke="#000000" stroke-width="1.54" mask="url(#mask-2)"></path>
                        </g>
                        <g id="Group-13" transform="translate(102.809665, 295.393655)">
                            <mask id="mask-4" fill="white">
                                <use xlink:href="#path-3"></use>
                            </mask>
                            <g id="Clip-12"></g>
                            <path d="M7.16234666,0.0317580817 C6.58032276,0.0317580817 6.11064663,0.506902367 6.11064663,1.09042667 L6.11064663,5.96517143 C6.11064663,6.55105182 6.58344353,7.02384002 7.16234666,7.02384002 C7.74124979,7.02384002 8.21404668,6.54791037 8.21404668,5.96517143 L8.21404668,1.09042667 C8.21404668,0.506902367 7.74437056,0.0317580817 7.16234666,0.0317580817 M0.0610309169,9.49223422 C-0.171466566,6.96807929 0.898958088,4.68188918 2.67545731,3.229754 C3.36748841,2.66272231 4.40280438,3.14807631 4.40280438,4.0433895 C4.40280438,4.37245637 4.247546,4.67560628 3.9947635,4.88058588 C2.73631236,5.91333751 1.97952525,7.54139388 2.16365077,9.33908854 C2.40316999,11.680254 4.26705082,13.576119 6.58968507,13.836074 C9.62073448,14.178492 12.1961512,11.7878487 12.1961512,8.80504207 C12.1961512,7.22253672 11.4682313,5.80574285 10.3330506,4.87744443 C10.0802681,4.67246483 9.92813048,4.36931492 9.92813048,4.0433895 C9.92813048,3.15828602 10.9478426,2.65643941 11.632852,3.21011994 C13.2572136,4.5287435 14.2987711,6.54476892 14.2987711,8.80504207 C14.2987711,12.9376193 10.8113088,16.2691268 6.6411778,15.9659769 C3.1927252,15.7217292 0.381690197,12.9572534 0.0610309169,9.49223422" id="Fill-11" fill="#000000" mask="url(#mask-4)"></path>
                        </g>
                    </g>
                </g>
            </g>
        </g>
    </g>
</svg>